<?xml version="1.0" encoding="UTF-8" standalone="no"?>
<!-- Generator: Adobe Illustrator 25.0.1, SVG Export Plug-In . SVG Version: 6.00 Build 0)  -->

<svg
   version="1.1"
   x="0px"
   y="0px"
   viewBox="0 0 1000 252.09669"
   xml:space="preserve"
   id="svg170"
   sodipodi:docname="img-logo_da.svg"
   width="1000"
   height="252.09669"
   inkscape:version="1.1.2 (b8e25be833, 2022-02-05)"
   xmlns:inkscape="http://www.inkscape.org/namespaces/inkscape"
   xmlns:sodipodi="http://sodipodi.sourceforge.net/DTD/sodipodi-0.dtd"
   xmlns="http://www.w3.org/2000/svg"
   xmlns:svg="http://www.w3.org/2000/svg"><defs
   id="defs174" /><sodipodi:namedview
   id="namedview172"
   pagecolor="#ffffff"
   bordercolor="#666666"
   borderopacity="1.0"
   inkscape:pageshadow="2"
   inkscape:pageopacity="0.0"
   inkscape:pagecheckerboard="0"
   showgrid="false"
   inkscape:zoom="0.5"
   inkscape:cx="577"
   inkscape:cy="192"
   inkscape:window-width="1366"
   inkscape:window-height="705"
   inkscape:window-x="-8"
   inkscape:window-y="-8"
   inkscape:window-maximized="1"
   inkscape:current-layer="svg170" />
<style
   type="text/css"
   id="style2">
	.st0{fill:#FFFFFF;}
	.st1{fill:#05CC47;}
	.st2{fill:#242627;}
	.st3{display:none;}
	.st4{display:inline;fill:none;stroke:#868686;stroke-width:0.4;stroke-miterlimit:10;stroke-dasharray:2;}
	.st5{display:inline;fill:none;stroke:#9C9B9B;stroke-width:0.25;stroke-miterlimit:10;stroke-dasharray:2;}
	.st6{display:inline;fill:none;stroke:#868686;stroke-width:0.2;stroke-miterlimit:10;stroke-dasharray:2;}
	.st7{display:inline;}
	.st8{fill:#6F6F6E;}
	.st9{fill:none;stroke:#6F6F6E;stroke-width:0.5;stroke-miterlimit:10;}
	.st10{display:inline;fill:#D9D9D9;}
</style>

<g
   id="Artwork"
   style="display:inline"
   transform="matrix(1.2333498,0,0,1.2333498,-226.44302,-561.54416)">
	<g
   id="Color_01_1_">
		<path
   id="polygon6"
   class="st1"
   style="fill:#05cc47"
   d="m 224.5,656 17.5,-33.5 5.5,-3.7 h 62.6 v -51 h -34.4 l -3.1,-3.7 37.5,-71.6 v -37.1 h -37.2 l -3.7,3.7 -17.5,33.4 -5.5,3.7 h -62.6 v 51.1 H 218 l 3.1,3.7 -37.5,71.5 v 37.2 h 37.2 z" />
		<g
   id="g14">
			<path
   class="st2"
   d="m 383.7,567.8 -48.1,91.9 h 28.5 l 7,-13.4 h 32.2 l 3.2,13.4 H 435 l -22,-91.9 z m -1,56.4 10.6,-20.1 4.9,20.1 z"
   id="path8" />
			<path
   id="path10"
   style="stroke-width:1.23335"
   class="st2"
   d="m 316.60156,138.75195 v 113.34571 h 33.91602 v -33.05469 h 15.04687 l 16.4043,33.05469 h 35.15039 l -20.9668,-39.96094 c 10.23681,-6.53676 16.40235,-17.63759 16.40235,-32.31445 0,-26.02369 -17.63574,-41.07032 -42.30274,-41.07032 z m 33.79297,30.09375 h 15.04688 c 9.12678,0 12.58007,4.56366 12.58007,11.59375 0.12334,6.78343 -3.45329,11.34571 -12.58007,11.34571 h -15.04688 z"
   transform="matrix(0.81079999,0,0,0.81079999,183.6,455.3)" />
			<path
   id="polygon12"
   class="st2"
   style="fill:#242627"
   d="m 599.2,592.2 12.7,-24.4 h -89.7 v 24.4 h 25.9 v 67.5 h 15.7 l 11.8,-22.6 v -44.9 z" />
		</g>
		<g
   id="g30">
			<path
   id="rect16"
   class="st2"
   style="fill:#242627"
   d="m 676.09998,455.39999 h 27.5 V 547.3 h -27.5 z" />
			<path
   id="path18"
   style="stroke-width:1.23335"
   class="st2"
   d="M 319.4375,0.12304688 304.26758,29.230469 h 9.37304 c 16.65023,0 27.25782,10.607014 27.25782,27.503906 0,16.650222 -10.60759,27.380859 -27.25782,27.380859 H 303.0332 V 31.574219 l -32.80664,62.53125 v 19.363281 h 45.63477 c 36.75382,0 58.33789,-22.200869 58.33789,-56.611328 C 374.07588,23.433642 353.97129,1.6030666 319.4375,0.12304688 Z"
   transform="matrix(0.81079999,0,0,0.81079999,183.6,455.3)" />
			<path
   id="polygon20"
   class="st2"
   style="fill:#242627"
   d="M 564.3,547.3 V 522.9 H 521.7 V 513 h 39.2 v -23.3 h -39.2 v -10 h 42.6 v -24.3 h -70.1 v 91.9 z" />
			<path
   id="polygon22"
   class="st2"
   style="fill:#242627"
   d="m 593.3,547.2 h 29.4 l 48.1,-91.8 h -28.6 l -29,55.6 -13.4,-55.6 h -28.5 z" />
			<path
   id="polygon24"
   class="st2"
   style="fill:#242627"
   d="m 904.7,479.7 h 26 v 67.6 h 15.6 l 11.8,-22.6 v -45 h 23.6 l 12.7,-24.3 h -89.7 z" />
			<path
   id="path26"
   style="stroke-width:1.23335"
   class="st2"
   d="M 743.46289,0 707.32617,0.12304688 648.00195,113.3457 h 35.15039 l 8.63282,-16.527341 H 731.5 l 3.94727,16.527341 h 35.15039 z m -24.54297,44.894531 6.04297,24.789063 h -18.99414 z"
   transform="matrix(0.81079999,0,0,0.81079999,183.6,455.3)" />
			<path
   id="polygon28"
   class="st2"
   style="fill:#242627"
   d="M 813.5,547.3 H 841 v -46.7 l 34,46.7 h 23.8 v -91.9 h -27.4 v 43.5 l -30.8,-43.5 h -27.1 z" />
		</g>
	</g>
</g>


</svg>
